<svg width="18" height="23" viewBox="0 0 18 23" fill="none" xmlns="http://www.w3.org/2000/svg">
<path d="M9.33327 11.4457C12.2788 11.4457 14.6668 9.07002 14.6668 6.13946C14.6668 3.20891 12.2788 0.833221 9.33327 0.833221C6.38769 0.833221 3.99982 3.20891 3.99982 6.13946C3.99982 9.07002 6.38769 11.4457 9.33327 11.4457Z" fill="white"/>
<path d="M12.111 13.6566H6.55528C3.33299 13.6566 0.66626 16.3098 0.66626 19.5156C0.66626 20.2894 0.999598 20.9528 1.66629 21.2844C2.6663 21.8371 4.88858 22.5002 9.33312 22.5002C13.7777 22.5002 15.9999 21.8371 16.9999 21.2844C17.5555 20.9528 18 20.2894 18 19.5156C18 16.1992 15.3333 13.6566 12.111 13.6566Z" fill="url(#paint0_linear_1_218)"/>
<defs>
<linearGradient id="paint0_linear_1_218" x1="0.665897" y1="22.5" x2="8.19151" y2="8.92321" gradientUnits="userSpaceOnUse">
<stop stop-color="#0146A6"/>
<stop offset="0.46875" stop-color="#0368BE"/>
<stop offset="1" stop-color="#06C6DD"/>
</linearGradient>
</defs>
</svg>
