<svg width="75" height="77" viewBox="0 0 75 77" fill="none" xmlns="http://www.w3.org/2000/svg">
<path d="M58.7419 22.3025C58.7419 21.3343 59.5261 20.5495 60.4936 20.5495C61.4611 20.5495 62.2453 21.3343 62.2453 22.3025C62.2453 23.2707 61.4611 24.0555 60.4936 24.0555C59.5261 24.0555 58.7419 23.2707 58.7419 22.3025ZM70.8043 36.5275C80.6644 37.0282 70.0532 27.0607 70.0532 27.0607C70.4536 5.92321 39.2719 8.17746 39.2719 8.17746C38.1199 6.58893 35.5142 3.48303 31.0501 1.66625C30.0814 1.27172 24.6351 -0.848163 18.5058 1.17969C15.3275 2.23135 11.5924 4.5212 11.9094 6.06126C12.2864 7.89277 18.1576 7.50744 18.5371 9.53898C18.7603 10.7336 16.932 11.9736 16.5991 12.235C-12.631 35.1752 6.58879 70.5377 6.58879 70.5377C6.58879 70.5377 0.582738 32.2699 33.6166 33.9732C30.6651 41.3324 30.9894 43.4118 31.7993 43.9756C34.058 45.547 39.7318 35.0801 50.8506 33.3584C50.8506 33.3584 53.5544 32.94 70.8043 36.5275Z" fill="url(#paint0_linear_423_354)"/>
<mask id="mask0_423_354" style="mask-type:alpha" maskUnits="userSpaceOnUse" x="0" y="0" width="75" height="71">
<path d="M58.7419 22.3025C58.7419 21.3343 59.5261 20.5495 60.4936 20.5495C61.4611 20.5495 62.2453 21.3343 62.2453 22.3025C62.2453 23.2707 61.4611 24.0555 60.4936 24.0555C59.5261 24.0555 58.7419 23.2707 58.7419 22.3025ZM70.8043 36.5275C80.6644 37.0282 70.0532 27.0607 70.0532 27.0607C70.4536 5.92321 39.2719 8.17746 39.2719 8.17746C38.1199 6.58893 35.5142 3.48303 31.0501 1.66625C30.0814 1.27172 24.6351 -0.848163 18.5058 1.17969C15.3275 2.23135 11.5924 4.5212 11.9094 6.06126C12.2864 7.89277 18.1576 7.50744 18.5371 9.53898C18.7603 10.7336 16.932 11.9736 16.5991 12.235C-12.631 35.1752 6.58879 70.5377 6.58879 70.5377C6.58879 70.5377 0.582738 32.2699 33.6166 33.9732C30.6651 41.3324 30.9894 43.4118 31.7993 43.9756C34.058 45.547 39.7318 35.0801 50.8506 33.3584C50.8506 33.3584 53.5544 32.94 70.8043 36.5275Z" fill="black"/>
</mask>
<g mask="url(#mask0_423_354)">
<path fill-rule="evenodd" clip-rule="evenodd" d="M58.7418 22.294C58.7418 21.3258 59.5259 20.5411 60.4934 20.5411C61.4609 20.5411 62.2451 21.3258 62.2451 22.294C62.2451 23.2623 61.4609 24.047 60.4934 24.047C59.5259 24.047 58.7418 23.2623 58.7418 22.294ZM18.4578 10.265C18.4578 10.265 36.3981 6.33752 40.7028 19.9619C45.0068 33.5862 52.4144 25.5717 60.2224 26.1724C68.0304 26.7737 74.11 36.0282 74.11 36.0282C77.5116 34.0593 70.0524 27.0523 70.0524 27.0523C70.4528 5.91477 39.2712 8.16903 39.2712 8.16903C29.6116 -5.05465 15.998 1.75783 15.998 1.75783C13.0103 2.88128 11.1066 4.54773 11.2906 5.78837C11.4573 6.9106 12.2973 7.35605 12.2973 7.35605C12.6425 7.53889 12.9852 7.55853 13.2029 7.55055C16.7571 8.86973 18.5333 9.52931 18.5369 9.53054C18.6031 9.82996 18.5234 10.1018 18.4585 10.2656L18.4578 10.265Z" fill="url(#paint1_linear_423_354)"/>
</g>
<path fill-rule="evenodd" clip-rule="evenodd" d="M7.06924 40.8073C-0.137893 45.9165 9.51127 19.0814 9.51127 19.0814C-9.14573 41.5866 6.58917 70.5373 6.58917 70.5373C6.58917 70.5373 2.3961 43.82 20.2879 36.027C15.2972 37.1026 10.1066 38.6543 7.06985 40.8067" fill="url(#paint2_linear_423_354)"/>
<path fill-rule="evenodd" clip-rule="evenodd" d="M8.53138 49.0985C8.10527 53.5647 9.35417 55.9331 10.3211 57.1633C11.0844 58.1346 12.0966 58.9365 13.8017 60.287C16.7348 62.6112 18.4951 63.4266 18.3025 64.0684C18.0751 64.8268 15.5497 63.9046 13.4228 65.5784C12.3701 66.4067 11.8692 67.5136 11.714 67.8658C11.3315 68.7352 11.1782 69.6243 11.1825 70.8705C11.1947 74.4776 12.5093 76.2773 12.0555 76.5988C11.3897 77.0712 7.4707 73.9653 5.28556 69.3236C4.02071 66.6362 3.66633 64.1328 3.57069 62.4351C5.22425 57.9898 6.87782 53.5444 8.53138 49.0991V49.0985Z" fill="url(#paint3_linear_423_354)"/>
<defs>
<linearGradient id="paint0_linear_423_354" x1="75" y1="35.4424" x2="9.46358" y2="75.4809" gradientUnits="userSpaceOnUse">
<stop stop-color="#0696E0"/>
<stop offset="1" stop-color="#003399"/>
</linearGradient>
<linearGradient id="paint1_linear_423_354" x1="74.9999" y1="35.9938" x2="11.3241" y2="5.18964" gradientUnits="userSpaceOnUse">
<stop stop-color="#06D2DF"/>
<stop offset="1" stop-color="#0367BE" stop-opacity="0"/>
</linearGradient>
<linearGradient id="paint2_linear_423_354" x1="5.81154" y1="42.6778" x2="10.3377" y2="76.6461" gradientUnits="userSpaceOnUse">
<stop stop-color="#0146A6"/>
<stop offset="0.625036" stop-color="#0694DF"/>
<stop offset="1" stop-color="#06C6DD"/>
</linearGradient>
<linearGradient id="paint3_linear_423_354" x1="5.81154" y1="42.6778" x2="10.3377" y2="76.6461" gradientUnits="userSpaceOnUse">
<stop stop-color="#0146A6"/>
<stop offset="0.625036" stop-color="#0694DF"/>
<stop offset="1" stop-color="#06C6DD"/>
</linearGradient>
</defs>
</svg>
