<svg width="167" height="14" viewBox="0 0 167 14" fill="none" xmlns="http://www.w3.org/2000/svg">
<path d="M10.822 1.27H11.998L9.674 11H8.316L6.118 2.908L3.92 11H2.562L0.238 1.27H1.414L3.276 9.53L5.474 1.27H6.762L8.974 9.502L10.822 1.27ZM13.5335 7.752C13.7435 9.124 14.8215 10.048 16.1795 10.048C17.3835 10.048 18.0555 9.586 18.4195 8.732L19.4555 9.362C18.9095 10.412 17.8875 11.168 16.1375 11.168C13.8695 11.168 12.3295 9.516 12.3295 7.318C12.3295 5.176 13.9675 3.454 16.0535 3.454C18.2795 3.454 19.6935 5.204 19.6935 7.15C19.6935 7.36 19.6795 7.612 19.6655 7.752H13.5335ZM13.5475 6.716H18.4755C18.2935 5.33 17.3275 4.49 16.0955 4.49C14.8495 4.49 13.7715 5.316 13.5475 6.716ZM21.16 11V0.766H22.35V11H21.16ZM27.6502 11.154C25.4662 11.154 23.8562 9.53 23.8562 7.318C23.8562 5.134 25.4522 3.482 27.6362 3.482C29.4142 3.482 30.6182 4.546 30.9962 5.778L29.9322 6.198C29.6242 5.176 28.7842 4.546 27.6642 4.546C26.1802 4.546 25.0602 5.68 25.0602 7.318C25.0602 8.956 26.1802 10.09 27.6782 10.09C28.8122 10.09 29.6662 9.46 29.9742 8.438L31.0382 8.872C30.6602 10.076 29.4422 11.154 27.6502 11.154ZM35.7313 11.154C33.4913 11.154 31.8953 9.516 31.8953 7.318C31.8953 5.106 33.4913 3.468 35.7313 3.468C37.9713 3.468 39.5673 5.106 39.5673 7.318C39.5673 9.516 37.9713 11.154 35.7313 11.154ZM35.7453 10.09C37.2993 10.09 38.3773 8.928 38.3773 7.318C38.3773 5.694 37.3133 4.532 35.7453 4.532C34.1773 4.532 33.0993 5.694 33.0993 7.318C33.0993 8.928 34.1773 10.09 35.7453 10.09ZM49.8013 3.468C51.6493 3.468 52.6993 4.728 52.6993 6.45V11H51.5093V6.66C51.5093 5.414 50.7673 4.518 49.5353 4.532C48.2893 4.532 47.5193 5.498 47.4913 6.352V11H46.3013V6.66C46.3013 5.4 45.5593 4.518 44.3273 4.532C43.0953 4.532 42.3113 5.498 42.2973 6.352V11H41.1073V3.622H42.2273V4.714C42.6753 4.028 43.5293 3.468 44.6633 3.468C45.9373 3.468 46.7773 4.014 47.1833 4.966C47.5613 4.168 48.4713 3.468 49.8013 3.468ZM55.2738 7.752C55.4838 9.124 56.5618 10.048 57.9198 10.048C59.1238 10.048 59.7958 9.586 60.1598 8.732L61.1958 9.362C60.6498 10.412 59.6278 11.168 57.8778 11.168C55.6098 11.168 54.0698 9.516 54.0698 7.318C54.0698 5.176 55.7078 3.454 57.7938 3.454C60.0198 3.454 61.4338 5.204 61.4338 7.15C61.4338 7.36 61.4198 7.612 61.4058 7.752H55.2738ZM55.2878 6.716H60.2158C60.0338 5.33 59.0678 4.49 57.8358 4.49C56.5898 4.49 55.5118 5.316 55.2878 6.716ZM72.1583 1.27V2.348H69.0923V11H67.9023V2.348H64.8363V1.27H72.1583ZM75.3387 11.154C73.0987 11.154 71.5027 9.516 71.5027 7.318C71.5027 5.106 73.0987 3.468 75.3387 3.468C77.5787 3.468 79.1747 5.106 79.1747 7.318C79.1747 9.516 77.5787 11.154 75.3387 11.154ZM75.3527 10.09C76.9067 10.09 77.9847 8.928 77.9847 7.318C77.9847 5.694 76.9207 4.532 75.3527 4.532C73.7847 4.532 72.7067 5.694 72.7067 7.318C72.7067 8.928 73.7847 10.09 75.3527 10.09Z" fill="white"/>
<path d="M87.5552 1.27C90.4672 1.27 92.5112 3.16 92.5112 6.128C92.5112 9.096 90.4672 11 87.5552 11H83.7612V1.27H87.5552ZM87.4852 9.152C89.2072 9.152 90.3972 8.074 90.3972 6.156C90.3972 4.21 89.2072 3.118 87.4852 3.118H85.8472V9.152H87.4852ZM99.3381 3.622H101.256V11H99.3381V10.188C98.8061 10.818 98.0361 11.182 97.0701 11.182C94.9421 11.182 93.4021 9.516 93.4021 7.318C93.4021 5.106 94.9421 3.58 97.0701 3.58C98.0361 3.58 98.8061 3.916 99.3381 4.518V3.622ZM97.3641 9.348C98.4981 9.348 99.2681 8.522 99.2681 7.318C99.2681 6.114 98.4981 5.274 97.3641 5.274C96.2581 5.274 95.4601 6.142 95.4601 7.318C95.4601 8.494 96.2581 9.348 97.3641 9.348ZM102.734 11V0.766H104.806V11H102.734ZM110.531 3.454C112.659 3.454 114.143 5.106 114.143 7.318C114.143 9.516 112.603 11.182 110.475 11.182C109.607 11.182 108.893 10.902 108.361 10.384V13.506H106.289V3.622H108.207V4.434C108.767 3.804 109.565 3.454 110.531 3.454ZM110.195 9.348C111.287 9.348 112.085 8.494 112.085 7.318C112.085 6.142 111.287 5.274 110.195 5.274C109.047 5.274 108.277 6.114 108.277 7.318C108.277 8.522 109.047 9.348 110.195 9.348ZM119.471 3.44C121.235 3.44 122.355 4.63 122.355 6.352V11H120.297V6.758C120.297 5.82 119.681 5.288 118.841 5.288C118.015 5.288 117.371 5.876 117.357 6.632V11H115.285V0.766H117.357V4.196C117.861 3.748 118.589 3.44 119.471 3.44ZM129.375 3.622H131.293V11H129.375V10.188C128.843 10.818 128.073 11.182 127.107 11.182C124.979 11.182 123.439 9.516 123.439 7.318C123.439 5.106 124.979 3.58 127.107 3.58C128.073 3.58 128.843 3.916 129.375 4.518V3.622ZM127.401 9.348C128.535 9.348 129.305 8.522 129.305 7.318C129.305 6.114 128.535 5.274 127.401 5.274C126.295 5.274 125.497 6.142 125.497 7.318C125.497 8.494 126.295 9.348 127.401 9.348ZM136.957 3.44C138.721 3.44 139.841 4.63 139.841 6.352V11H137.783V6.758C137.783 5.82 137.167 5.288 136.327 5.288C135.501 5.288 134.857 5.876 134.843 6.632V11H132.771V3.622H134.731V4.308C135.235 3.79 136.005 3.44 136.957 3.44ZM149.996 11L149.31 8.914H145.698L145.012 11H142.954L146.23 1.27H148.764L152.04 11H149.996ZM146.258 7.22H148.75L147.504 3.454L146.258 7.22ZM152.968 11V1.27H155.054V11H152.968ZM161.499 11.182C158.643 11.182 156.417 8.998 156.417 6.142C156.417 3.272 158.643 1.088 161.499 1.088C164.355 1.088 166.567 3.272 166.567 6.142C166.567 8.998 164.355 11.182 161.499 11.182ZM161.499 9.208C163.263 9.208 164.453 7.934 164.453 6.128C164.453 4.35 163.291 3.062 161.499 3.062C159.707 3.062 158.531 4.35 158.531 6.128C158.531 7.934 159.735 9.208 161.499 9.208Z" fill="url(#paint0_linear_1_20)"/>
<defs>
<linearGradient id="paint0_linear_1_20" x1="2.2068e-07" y1="6.71402" x2="168" y2="6.71402" gradientUnits="userSpaceOnUse">
<stop stop-color="#0146A6"/>
<stop offset="0.46875" stop-color="#0368BE"/>
<stop offset="1" stop-color="#06C6DD"/>
</linearGradient>
</defs>
</svg>
