<svg width="25" height="25" viewBox="0 0 25 25" fill="none" xmlns="http://www.w3.org/2000/svg">
<path d="M9.50671 0H1.79852C0.806764 0 0 0.806764 0 1.79852V6.42344C0 7.41538 0.806764 8.22214 1.79852 8.22214H9.50671C10.4987 8.22214 11.3054 7.41538 11.3054 6.42344V1.79852C11.3054 0.806764 10.4987 0 9.50671 0Z" fill="white"/>
<path d="M9.50671 10.2775H1.79852C0.806764 10.2775 0 11.0843 0 12.0762V22.8677C0 23.8595 0.806764 24.6662 1.79852 24.6662H9.50671C10.4987 24.6662 11.3054 23.8595 11.3054 22.8677V12.0762C11.3054 11.0843 10.4987 10.2775 9.50671 10.2775Z" fill="url(#paint0_linear_113_631)"/>
<path d="M22.8675 16.4442H15.1593C14.1674 16.4442 13.3606 17.2509 13.3606 18.2429V22.8678C13.3606 23.8595 14.1674 24.6663 15.1593 24.6663H22.8675C23.8593 24.6663 24.666 23.8595 24.666 22.8678V18.2429C24.666 17.2509 23.8593 16.4442 22.8675 16.4442Z" fill="white"/>
<path d="M22.8675 0H15.1593C14.1674 0 13.3606 0.806764 13.3606 1.79852V12.59C13.3606 13.5819 14.1674 14.3887 15.1593 14.3887H22.8675C23.8593 14.3887 24.666 13.5819 24.666 12.59V1.79852C24.666 0.806764 23.8593 0 22.8675 0Z" fill="url(#paint1_linear_113_631)"/>
<defs>
<linearGradient id="paint0_linear_113_631" x1="-0.000236589" y1="24.6659" x2="13.7117" y2="14.7493" gradientUnits="userSpaceOnUse">
<stop stop-color="#0146A6"/>
<stop offset="0.46875" stop-color="#0368BE"/>
<stop offset="1" stop-color="#06C6DD"/>
</linearGradient>
<linearGradient id="paint1_linear_113_631" x1="13.3604" y1="14.3884" x2="27.0723" y2="4.47182" gradientUnits="userSpaceOnUse">
<stop stop-color="#0146A6"/>
<stop offset="0.46875" stop-color="#0368BE"/>
<stop offset="1" stop-color="#06C6DD"/>
</linearGradient>
</defs>
</svg>
