<svg width="252" height="37" viewBox="0 0 252 37" fill="none" xmlns="http://www.w3.org/2000/svg">
<path d="M13.08 2.64C23.064 2.64 30.072 9.12 30.072 19.296C30.072 29.472 23.064 36 13.08 36H0.0720001V2.64H13.08ZM12.84 29.664C18.744 29.664 22.824 25.968 22.824 19.392C22.824 12.72 18.744 8.976 12.84 8.976H7.224V29.664H12.84ZM53.4784 10.704H60.0544V36H53.4784V33.216C51.6544 35.376 49.0144 36.624 45.7024 36.624C38.4064 36.624 33.1264 30.912 33.1264 23.376C33.1264 15.792 38.4064 10.56 45.7024 10.56C49.0144 10.56 51.6544 11.712 53.4784 13.776V10.704ZM46.7104 30.336C50.5984 30.336 53.2384 27.504 53.2384 23.376C53.2384 19.248 50.5984 16.368 46.7104 16.368C42.9184 16.368 40.1824 19.344 40.1824 23.376C40.1824 27.408 42.9184 30.336 46.7104 30.336ZM74.4821 36.624C68.8661 36.624 64.8341 34.32 63.3941 29.952L69.3941 27.648C70.0661 29.856 71.8901 31.152 74.7221 31.152C76.8341 31.152 78.0821 30.288 78.0821 28.848C78.0821 24.432 64.5941 26.544 64.5941 17.856C64.5941 13.056 68.5301 10.128 74.6741 10.128C79.7141 10.128 83.3621 12.192 84.4181 15.696L78.4181 18C77.7941 16.272 76.4501 15.408 74.5781 15.408C72.6581 15.408 71.6021 16.176 71.6021 17.472C71.6021 21.552 85.1381 19.104 85.1381 28.416C85.1381 33.504 80.9621 36.624 74.4821 36.624ZM103.24 10.08C109.288 10.08 113.128 14.16 113.128 20.064V36H106.072V21.456C106.072 18.24 103.96 16.416 101.08 16.416C98.2478 16.416 96.0398 18.432 95.9918 21.024V36H88.8878V0.912H95.9918V12.672C97.7198 11.136 100.216 10.08 103.24 10.08ZM132.541 10.128C139.837 10.128 144.925 15.792 144.925 23.376C144.925 30.912 139.645 36.624 132.349 36.624C129.085 36.624 126.445 35.424 124.573 33.36V36H117.997V0.912H125.101V12.912C126.973 11.136 129.517 10.128 132.541 10.128ZM131.389 30.336C135.133 30.336 137.869 27.408 137.869 23.376C137.869 19.344 135.133 16.368 131.389 16.368C127.453 16.368 124.813 19.248 124.813 23.376C124.813 27.504 127.453 30.336 131.389 30.336ZM161.321 36.624C153.305 36.624 147.641 30.912 147.641 23.376C147.641 15.792 153.305 10.128 161.321 10.128C169.289 10.128 175.001 15.792 175.001 23.376C175.001 30.912 169.289 36.624 161.321 36.624ZM161.369 30.288C165.209 30.288 167.897 27.408 167.897 23.328C167.897 19.296 165.305 16.464 161.369 16.464C157.433 16.464 154.793 19.296 154.793 23.376C154.793 27.408 157.433 30.288 161.369 30.288ZM198.088 10.704H204.664V36H198.088V33.216C196.264 35.376 193.624 36.624 190.312 36.624C183.016 36.624 177.736 30.912 177.736 23.376C177.736 15.792 183.016 10.56 190.312 10.56C193.624 10.56 196.264 11.712 198.088 13.776V10.704ZM191.32 30.336C195.208 30.336 197.848 27.504 197.848 23.376C197.848 19.248 195.208 16.368 191.32 16.368C187.528 16.368 184.792 19.344 184.792 23.376C184.792 27.408 187.528 30.336 191.32 30.336ZM216.452 13.152C218.18 11.328 220.724 10.08 223.7 10.08V16.752C219.38 16.752 216.836 18.72 216.836 22.08V36H209.732V10.704H216.452V13.152ZM244.857 0.912H251.961V36H245.385V33.408C243.513 35.424 240.873 36.624 237.609 36.624C230.313 36.624 225.033 30.912 225.033 23.376C225.033 15.792 230.169 10.128 237.417 10.128C240.441 10.128 242.985 11.136 244.857 12.912V0.912ZM238.617 30.336C242.505 30.336 245.145 27.504 245.145 23.376C245.145 19.248 242.505 16.368 238.617 16.368C234.825 16.368 232.089 19.344 232.089 23.376C232.089 27.408 234.825 30.336 238.617 30.336Z" fill="white"/>
</svg>
