<svg width="10" height="10" viewBox="0 0 10 10" fill="none" xmlns="http://www.w3.org/2000/svg">
<g id="Vector">
<path d="M0.402539 0.402148C0.91036 -0.105673 1.7337 -0.105673 2.24152 0.402148L9.59746 7.75809C10.1053 8.26591 10.1053 9.08925 9.59746 9.59707V9.59707C9.08964 10.1049 8.2663 10.1049 7.75848 9.59707L0.40254 2.24113C-0.105282 1.73331 -0.105282 0.90997 0.402539 0.402148V0.402148Z" fill="#02020C"/>
<path d="M9.59746 0.402149C10.1053 0.90997 10.1053 1.73331 9.59746 2.24113L2.24152 9.59707C1.7337 10.1049 0.91036 10.1049 0.402539 9.59707V9.59707C-0.105283 9.08925 -0.105283 8.26591 0.402539 7.75809L7.75848 0.40215C8.2663 -0.105672 9.08964 -0.105673 9.59746 0.402149V0.402149Z" fill="#02020C"/>
</g>
</svg>
