<svg width="24" height="24" viewBox="0 0 24 24" fill="none" xmlns="http://www.w3.org/2000/svg">
<g id="Group 427322105">
<rect id="Rectangle 14809" x="23.5" y="0.5" width="23" height="23" rx="4.5" transform="rotate(90 23.5 0.5)" stroke="url(#paint0_linear_224_423)"/>
<g id="Vector">
<path d="M8.00007 7.99993C8.44189 7.55811 9.15822 7.55811 9.60004 7.99993L15.9999 14.3998C16.4417 14.8416 16.4417 15.558 15.9999 15.9998C15.5581 16.4416 14.8418 16.4416 14.4 15.9998L8.00007 9.5999C7.55825 9.15808 7.55825 8.44175 8.00007 7.99993Z" fill="url(#paint1_linear_224_423)"/>
<path d="M15.9999 7.99993C16.4417 8.44175 16.4417 9.15808 15.9999 9.5999L9.60004 15.9998C9.15822 16.4416 8.44189 16.4416 8.00007 15.9998C7.55825 15.558 7.55825 14.8416 8.00007 14.3998L14.4 7.99993C14.8418 7.55811 15.5581 7.55811 15.9999 7.99993Z" fill="url(#paint2_linear_224_423)"/>
</g>
</g>
<defs>
<linearGradient id="paint0_linear_224_423" x1="36" y1="0" x2="36" y2="24" gradientUnits="userSpaceOnUse">
<stop stop-color="#FF0047"/>
<stop offset="1" stop-color="#FF4D7E"/>
</linearGradient>
<linearGradient id="paint1_linear_224_423" x1="15.9999" y1="7.99993" x2="8.00007" y2="15.9998" gradientUnits="userSpaceOnUse">
<stop stop-color="#FF0047"/>
<stop offset="1" stop-color="#FF4D7E"/>
</linearGradient>
<linearGradient id="paint2_linear_224_423" x1="15.9999" y1="7.99993" x2="8.00007" y2="15.9998" gradientUnits="userSpaceOnUse">
<stop stop-color="#FF0047"/>
<stop offset="1" stop-color="#FF4D7E"/>
</linearGradient>
</defs>
</svg>
