<svg width="24" height="21" viewBox="0 0 24 21" fill="none" xmlns="http://www.w3.org/2000/svg">
<path d="M16.3629 21H7.63713C7.06239 21.0004 6.49769 20.855 5.99986 20.5785C5.50203 20.302 5.08863 19.9042 4.80126 19.425L0.438386 12.075C0.151194 11.5961 0 11.0529 0 10.5C0 9.94706 0.151194 9.40386 0.438386 8.925L4.80126 1.575C5.08863 1.09584 5.50203 0.698003 5.99986 0.421515C6.49769 0.145027 7.06239 -0.000354087 7.63713 6.47616e-07H16.3629C16.9376 -0.000354087 17.5023 0.145027 18.0001 0.421515C18.498 0.698003 18.9114 1.09584 19.1987 1.575L23.5616 8.925C23.8488 9.40386 24 9.94706 24 10.5C24 11.0529 23.8488 11.5961 23.5616 12.075L19.1987 19.425C18.9114 19.9042 18.498 20.302 18.0001 20.5785C17.5023 20.855 16.9376 21.0004 16.3629 21ZM7.63713 2.1C7.44493 2.09927 7.25595 2.14743 7.08931 2.23963C6.92267 2.33182 6.7843 2.46477 6.6882 2.625L2.32533 9.975C2.2296 10.1346 2.1792 10.3157 2.1792 10.5C2.1792 10.6843 2.2296 10.8654 2.32533 11.025L6.6882 18.375C6.7843 18.5352 6.92267 18.6682 7.08931 18.7604C7.25595 18.8526 7.44493 18.9007 7.63713 18.9H16.3629C16.5551 18.9007 16.7441 18.8526 16.9107 18.7604C17.0773 18.6682 17.2157 18.5352 17.3118 18.375L21.6747 11.025C21.7704 10.8654 21.8208 10.6843 21.8208 10.5C21.8208 10.3157 21.7704 10.1346 21.6747 9.975L17.3118 2.625C17.2157 2.46477 17.0773 2.33182 16.9107 2.23963C16.7441 2.14743 16.5551 2.09927 16.3629 2.1H7.63713Z" fill="url(#paint0_linear_1_235)"/>
<path d="M22.7109 9.45L18.2934 2.1C18.0985 1.77484 17.8166 1.50592 17.4771 1.32125C17.1375 1.13658 16.7528 1.04292 16.3629 1.05H7.63713C7.24721 1.04292 6.86246 1.13658 6.52292 1.32125C6.18338 1.50592 5.90148 1.77484 5.70655 2.1L1.28915 9.45C1.09768 9.76924 0.996889 10.1314 0.996889 10.5C0.996889 10.8686 1.09768 11.2308 1.28915 11.55L5.70655 18.9C5.90148 19.2252 6.18338 19.4941 6.52292 19.6787C6.86246 19.8634 7.24721 19.9571 7.63713 19.95H16.3629C16.7454 19.9496 17.1211 19.8524 17.4523 19.6681C17.7835 19.4838 18.0585 19.2189 18.2498 18.9L22.6672 11.55C22.8654 11.2345 22.9737 10.8743 22.9814 10.5056C22.989 10.137 22.8957 9.77291 22.7109 9.45ZM12 13.65C11.3528 13.65 10.7202 13.4653 10.1821 13.1191C9.64398 12.773 9.22458 12.281 8.97692 11.7055C8.72926 11.1299 8.66446 10.4965 8.79072 9.88547C8.91697 9.27443 9.22862 8.71315 9.68624 8.27261C10.1439 7.83208 10.7269 7.53207 11.3616 7.41053C11.9964 7.28898 12.6543 7.35136 13.2522 7.58978C13.8501 7.8282 14.3611 8.23194 14.7207 8.74995C15.0802 9.26797 15.2722 9.87699 15.2722 10.5C15.2722 11.3354 14.9274 12.1366 14.3138 12.7274C13.7001 13.3181 12.8678 13.65 12 13.65Z" fill="url(#paint1_linear_1_235)"/>
<defs>
<linearGradient id="paint0_linear_1_235" x1="-0.000502248" y1="20.9995" x2="21.0449" y2="-1.13879" gradientUnits="userSpaceOnUse">
<stop stop-color="#0146A6"/>
<stop offset="0.46875" stop-color="#0368BE"/>
<stop offset="1" stop-color="#06C6DD"/>
</linearGradient>
<linearGradient id="paint1_linear_1_235" x1="-0.000502248" y1="20.9995" x2="21.0449" y2="-1.13879" gradientUnits="userSpaceOnUse">
<stop stop-color="#0146A6"/>
<stop offset="0.46875" stop-color="#0368BE"/>
<stop offset="1" stop-color="#06C6DD"/>
</linearGradient>
</defs>
</svg>
