<svg width="10" height="10" viewBox="0 0 10 10" fill="none" xmlns="http://www.w3.org/2000/svg">
<g id="icons8-edit-14">
<path id="Combined Shape" fill-rule="evenodd" clip-rule="evenodd" d="M9.52705 3.30833L8.3838 4.41739L6.1065 2.15638L7.24055 1.02233C7.54545 0.717429 7.95132 0.549561 8.3838 0.549561C8.81628 0.549561 9.2219 0.717181 9.52705 1.02208C10.1572 1.65252 10.1572 2.67814 9.52705 3.30833ZM1.61235 6.65103L6.10601 2.15738L8.39226 4.44337L3.89885 8.93678C3.8031 9.03278 3.68472 9.10565 3.55615 9.14793L1.03986 9.9813C1.00131 9.99399 0.961767 10.0002 0.922473 10.0002C0.824985 10.0002 0.729984 9.96215 0.658608 9.89103C0.558882 9.7913 0.523816 9.64382 0.568332 9.51003L1.40146 6.99299C1.44374 6.86491 1.5166 6.74678 1.61235 6.65103Z" fill="#02020C"/>
<path id="Combined Shape_2" fill-rule="evenodd" clip-rule="evenodd" d="M9.52705 3.30833L8.3838 4.41739L6.1065 2.15638L7.24055 1.02233C7.54545 0.717429 7.95132 0.549561 8.3838 0.549561C8.81628 0.549561 9.2219 0.717181 9.52705 1.02208C10.1572 1.65252 10.1572 2.67814 9.52705 3.30833ZM1.61235 6.65103L6.10601 2.15738L8.39226 4.44337L3.89885 8.93678C3.8031 9.03278 3.68472 9.10565 3.55615 9.14793L1.03986 9.9813C1.00131 9.99399 0.961767 10.0002 0.922473 10.0002C0.824985 10.0002 0.729984 9.96215 0.658608 9.89103C0.558882 9.7913 0.523816 9.64382 0.568332 9.51003L1.40146 6.99299C1.44374 6.86491 1.5166 6.74678 1.61235 6.65103Z" fill="#02020C"/>
</g>
</svg>
