<svg width="55" height="20" viewBox="0 0 55 20" fill="none" xmlns="http://www.w3.org/2000/svg">
<path d="M6.45508 19.9919C4.8461 19.9254 3.52972 19.4679 2.50041 18.6181C2.30397 18.4558 1.83588 17.9691 1.67884 17.7638C1.26144 17.2183 0.977668 16.6875 0.788393 16.0986C0.205965 14.2856 0.50572 11.9066 1.64578 9.29575C2.62191 7.0605 4.12812 4.84357 6.75594 1.77314C7.14303 1.32133 8.29576 0 8.3032 0C8.30595 0 8.24314 0.113093 8.16407 0.250812C7.4808 1.44016 6.89617 2.84109 6.57768 4.05392C6.06606 5.99999 6.12777 7.67006 6.75841 8.96506C7.19344 9.85721 7.93925 10.63 8.7779 11.0572C10.2461 11.8047 12.3956 11.8666 15.0207 11.2381C15.2014 11.1946 24.1571 8.72398 34.9224 5.74775C45.6877 2.77123 54.4971 0.33785 54.4985 0.339853C54.5015 0.342435 29.4877 11.4657 16.5026 17.2364C14.4462 18.15 13.8963 18.3808 12.9296 18.7335C10.4582 19.6354 8.24451 20.0657 6.45508 19.9919Z" fill="black"/>
</svg>
