<svg width="15" height="19" viewBox="0 0 15 19" fill="none" xmlns="http://www.w3.org/2000/svg">
<path d="M7.33363 8.9791C9.82589 8.9791 11.8464 6.96902 11.8464 4.48944C11.8464 2.00985 9.82589 -0.000244141 7.33363 -0.000244141C4.84133 -0.000244141 2.82092 2.00985 2.82092 4.48944C2.82092 6.96902 4.84133 8.9791 7.33363 8.9791Z" fill="#040414"/>
<path d="M9.68375 10.8495H4.98302C2.2566 10.8495 0.000244141 13.0945 0.000244141 15.8069C0.000244141 16.4617 0.282286 17.0229 0.846379 17.3035C1.6925 17.7712 3.5728 18.3323 7.33339 18.3323C11.094 18.3323 12.9742 17.7712 13.8204 17.3035C14.2904 17.0229 14.6665 16.4617 14.6665 15.8069C14.6665 13.0009 12.4102 10.8495 9.68375 10.8495Z" fill="#040414"/>
</svg>
