<?xml version="1.0" encoding="utf-8"?>
<!-- Generator: Adobe Illustrator 27.9.0, SVG Export Plug-In . SVG Version: 6.00 Build 0)  -->
<svg version="1.1" id="Layer_1" xmlns="http://www.w3.org/2000/svg" xmlns:xlink="http://www.w3.org/1999/xlink" x="0px" y="0px"
	 viewBox="0 0 24 24" style="enable-background:new 0 0 24 24;" xml:space="preserve">
<style type="text/css">
	.st0{fill-rule:evenodd;clip-rule:evenodd;fill:url(#Subtract_00000142864581353232759760000017024497426174612098_);}
</style>
<g id="Credit_card_x5F_fill">
	
		<linearGradient id="Subtract_00000014608740376901404210000010507759261546256558_" gradientUnits="userSpaceOnUse" x1="4.1287" y1="20.3713" x2="19.8713" y2="4.6287">
		<stop  offset="0" style="stop-color:#0146A6"/>
		<stop  offset="0.495" style="stop-color:#0368BE"/>
		<stop  offset="1" style="stop-color:#06C6DD"/>
	</linearGradient>
	
		<path id="Subtract" style="fill-rule:evenodd;clip-rule:evenodd;fill:url(#Subtract_00000014608740376901404210000010507759261546256558_);" d="
		M2,10h20c0-2.2-0.1-3.4-0.9-4.1C20.2,5,18.8,5,16,5H8C5.2,5,3.8,5,2.9,5.9C2.1,6.6,2,7.8,2,10z M22,12H2v2c0,2.8,0,4.2,0.9,5.1
		S5.2,20,8,20h8c2.8,0,4.2,0,5.1-0.9S22,16.8,22,14V12z M7,15c-0.6,0-1,0.4-1,1c0,0.6,0.4,1,1,1h0c0.6,0,1-0.4,1-1
		C8,15.4,7.6,15,7,15L7,15z"/>
</g>
</svg>
