<svg width="28" height="19" viewBox="0 0 28 19" fill="none" xmlns="http://www.w3.org/2000/svg">
<path d="M19.7236 13.5098C18.2572 12.1033 16.2324 11.2324 13.9999 11.2324C11.7672 11.2324 9.74247 12.1033 8.2762 13.5098L5.04549 10.4109C7.33962 8.21046 10.5071 6.84726 13.9999 6.84726C17.4928 6.84726 20.6601 8.21046 22.9544 10.4109L19.7236 13.5098ZM10.3365 15.486L13.9999 19L17.6634 15.486C16.7258 14.5871 15.4306 14.0308 13.9999 14.0308C12.5692 14.0308 11.2741 14.5871 10.3365 15.486ZM13.9999 4.38464C18.2008 4.38464 22.0101 6.02356 24.7691 8.67037L28 5.57147C24.4131 2.13079 19.4611 0 14.0001 0C8.53883 0 3.58679 2.13079 0 5.57147L3.23083 8.67037C5.98975 6.02356 9.79921 4.38464 13.9999 4.38464Z" fill="url(#paint0_linear_1_227)"/>
<path d="M13.9999 4.38464C18.2008 4.38464 22.0101 6.02356 24.7691 8.67037L28 5.57147C24.4131 2.13079 19.4611 0 14.0001 0C8.53883 0 3.58679 2.13079 0 5.57147L3.23083 8.67037C5.98975 6.02356 9.79921 4.38464 13.9999 4.38464Z" fill="white"/>
<defs>
<linearGradient id="paint0_linear_1_227" x1="-0.000585956" y1="18.9996" x2="18.2119" y2="-5.70463" gradientUnits="userSpaceOnUse">
<stop stop-color="#0146A6"/>
<stop offset="0.46875" stop-color="#0368BE"/>
<stop offset="1" stop-color="#06C6DD"/>
</linearGradient>
</defs>
</svg>
