<svg width="90" height="35" viewBox="0 0 90 35" fill="none" xmlns="http://www.w3.org/2000/svg">
<rect width="90" height="35" rx="2" fill="url(#paint0_linear_1_69)"/>
<path d="M20.5295 13.6418C20.4421 13.6054 20.3414 13.6255 20.2747 13.6925L19.3028 14.6644C18.2599 13.591 16.8666 13 15.3792 13C15.0646 13 14.7473 13.0275 14.4363 13.0815C12.3193 13.4494 10.604 15.0342 10.0666 17.1192C10.0485 17.1892 10.064 17.2635 10.1081 17.3207C10.1524 17.3778 10.2206 17.4112 10.2929 17.4112H11.7817C11.8797 17.4112 11.9675 17.35 12.0012 17.2578C12.437 16.0665 13.5196 15.1574 14.7592 14.942C14.9634 14.9066 15.1712 14.8887 15.3772 14.8887C16.3623 14.8887 17.2822 15.2831 17.9681 15.999L16.9811 16.9859C16.9144 17.0528 16.8944 17.1533 16.9304 17.2406C16.9668 17.328 17.0518 17.3849 17.1464 17.3849H20.4401C20.5691 17.3849 20.6738 17.2802 20.6738 17.1512V13.8576C20.6738 13.7632 20.6167 13.678 20.5295 13.6418Z" fill="#02020C"/>
<path d="M20.3807 19.5834H18.892C18.794 19.5834 18.7062 19.6445 18.6725 19.7367C18.2367 20.928 17.1541 21.8372 15.9145 22.0525C15.7102 22.0879 15.5025 22.1058 15.2965 22.1058C14.3114 22.1058 13.3914 21.7114 12.7056 20.9955L13.6925 20.0086C13.7593 19.9417 13.7793 19.8412 13.7432 19.7539C13.707 19.6665 13.6217 19.6096 13.5272 19.6096H10.2338C10.1047 19.6096 10 19.7143 10 19.8433V23.137C10 23.2315 10.0569 23.3167 10.1443 23.353C10.2315 23.3892 10.3322 23.3691 10.399 23.3021L11.371 22.3303C12.4137 23.4036 13.807 23.9947 15.2944 23.9947C15.6091 23.9947 15.9264 23.9673 16.2374 23.9133C18.3543 23.5456 20.0697 21.9605 20.6071 19.8756C20.6252 19.8054 20.6098 19.7313 20.5657 19.674C20.5213 19.6169 20.453 19.5834 20.3807 19.5834Z" fill="#02020C"/>
<path d="M33.7448 22L31.2478 18.678H30.6648V22H29.5098V14.355H32.4468C34.0088 14.355 34.9878 15.246 34.9878 16.522C34.9878 17.765 34.0198 18.656 32.4908 18.678L35.0648 22H33.7448ZM30.6648 15.378V17.831H32.4138C33.3268 17.831 33.8438 17.347 33.8438 16.61C33.8438 15.873 33.3268 15.378 32.4138 15.378H30.6648ZM36.6151 19.492C36.7911 20.482 37.5501 21.098 38.5291 21.098C39.3981 21.098 39.8821 20.779 40.1461 20.174L41.1031 20.779C40.6631 21.549 39.8821 22.132 38.4961 22.132C36.6701 22.132 35.4601 20.834 35.4601 19.107C35.4601 17.424 36.7691 16.071 38.4081 16.071C40.2011 16.071 41.3121 17.479 41.3121 18.975C41.3121 19.173 41.3011 19.382 41.2901 19.492H36.6151ZM36.6261 18.601H40.1681C40.0141 17.622 39.3431 17.017 38.4521 17.017C37.5501 17.017 36.8021 17.6 36.6261 18.601ZM44.2912 22.132C43.0592 22.132 42.1572 21.626 41.8492 20.68L42.9052 20.273C43.0812 20.845 43.5762 21.175 44.3242 21.175C44.9732 21.175 45.3912 20.9 45.3912 20.427C45.3912 19.162 42.1242 19.734 42.1242 17.743C42.1242 16.709 42.9822 16.082 44.3022 16.082C45.3912 16.082 46.1722 16.522 46.4252 17.303L45.3692 17.71C45.1932 17.237 44.8192 17.006 44.2802 17.006C43.6862 17.006 43.3562 17.27 43.3562 17.677C43.3562 18.865 46.6232 18.216 46.6232 20.339C46.6232 21.472 45.6992 22.132 44.2912 22.132ZM48.4315 19.492C48.6075 20.482 49.3665 21.098 50.3455 21.098C51.2145 21.098 51.6985 20.779 51.9625 20.174L52.9195 20.779C52.4795 21.549 51.6985 22.132 50.3125 22.132C48.4865 22.132 47.2765 20.834 47.2765 19.107C47.2765 17.424 48.5855 16.071 50.2245 16.071C52.0175 16.071 53.1285 17.479 53.1285 18.975C53.1285 19.173 53.1175 19.382 53.1065 19.492H48.4315ZM48.4425 18.601H51.9845C51.8305 17.622 51.1595 17.017 50.2685 17.017C49.3665 17.017 48.6185 17.6 48.4425 18.601ZM56.5166 22C55.2076 22 54.5146 21.219 54.5146 19.976V17.204H53.4806V16.203H54.0416C54.4156 16.203 54.5806 16.016 54.5806 15.642V14.707H55.7136V16.203H57.3306V17.204H55.6696V19.855C55.6696 20.581 56.0546 20.977 56.7476 20.977H57.3966V22H56.5166ZM67.0734 22H65.1924L62.2444 18.458V22H60.6054V14.355H62.2444V17.71L65.0824 14.355H66.9634L63.8614 18.062L67.0734 22ZM68.2384 19.602C68.4254 20.361 69.0194 20.79 69.7894 20.79C70.5044 20.79 70.8674 20.537 71.1204 20.075L72.3634 20.9C71.9124 21.56 71.1644 22.143 69.7454 22.143C67.8644 22.143 66.6434 20.834 66.6434 19.107C66.6434 17.424 67.9744 16.071 69.6354 16.071C71.5054 16.071 72.6164 17.534 72.6164 18.986C72.6164 19.239 72.6054 19.459 72.5834 19.602H68.2384ZM68.2164 18.535H71.0874C70.9334 17.776 70.4274 17.303 69.6794 17.303C68.9314 17.303 68.3814 17.743 68.2164 18.535ZM77.2053 16.203H78.8883L76.7543 22L76.0393 23.969H74.4333L75.2143 22H74.6753L72.7393 16.203H74.4223L75.7313 20.702L77.2053 16.203Z" fill="#02020C"/>
<defs>
<linearGradient id="paint0_linear_1_69" x1="1.18221e-07" y1="19.9991" x2="90" y2="19.9991" gradientUnits="userSpaceOnUse">
<stop stop-color="#0146A6"/>
<stop offset="0.46875" stop-color="#0368BE"/>
<stop offset="1" stop-color="#06C6DD"/>
</linearGradient>
</defs>
</svg>
