<svg width="22" height="20" viewBox="0 0 22 20" fill="none" xmlns="http://www.w3.org/2000/svg">
<path d="M20.6873 7.06602C20.2594 7.00634 19.851 6.85475 19.4926 6.62253C19.1342 6.39032 18.8349 6.08346 18.6171 5.72481C18.3994 5.36615 18.2686 4.96495 18.2347 4.55108C18.2008 4.1372 18.2646 3.72131 18.4213 3.33438C18.521 3.08143 18.5356 2.80488 18.4633 2.54351C18.391 2.28214 18.2353 2.04905 18.018 1.87693C17.0588 1.10362 15.967 0.496119 14.7913 0.081525C14.5236 -0.0139605 14.2313 -0.0258907 13.9561 0.047434C13.6809 0.120759 13.4369 0.275598 13.2587 0.489893C12.9905 0.819159 12.6477 1.08547 12.2564 1.26862C11.865 1.45177 11.4354 1.54695 11 1.54695C10.5646 1.54695 10.135 1.45177 9.74365 1.26862C9.35231 1.08547 9.00954 0.819159 8.74134 0.489893C8.56316 0.275598 8.31908 0.120759 8.04388 0.047434C7.76868 -0.0258907 7.4764 -0.0139605 7.20868 0.081525C6.1231 0.464294 5.10811 1.01097 4.20201 1.70091C3.97361 1.87451 3.8091 2.11376 3.73256 2.38363C3.65602 2.65349 3.67149 2.93979 3.77668 3.20061C3.9459 3.59777 4.01582 4.02749 3.98082 4.45528C3.94582 4.88307 3.80689 5.29704 3.57516 5.66397C3.34343 6.0309 3.02536 6.34058 2.64646 6.56816C2.26756 6.79575 1.83838 6.93491 1.39335 6.97449C1.10442 7.00415 0.833046 7.12209 0.619177 7.31095C0.405308 7.49981 0.260246 7.74961 0.205349 8.02357C0.0688008 8.67252 1.58696e-05 9.33293 1.58696e-05 9.995C-0.000987765 10.5493 0.0456146 11.1027 0.139349 11.6496C0.186 11.9323 0.328363 12.1924 0.544427 12.3897C0.760492 12.587 1.03822 12.7104 1.33468 12.7409C1.78949 12.7819 2.22746 12.9269 2.61193 13.1637C2.9964 13.4006 3.31619 13.7224 3.54453 14.1023C3.77287 14.4821 3.90311 14.909 3.92437 15.3471C3.94562 15.7852 3.85726 16.2218 3.66668 16.6204C3.54196 16.8797 3.51102 17.1715 3.57878 17.4496C3.64654 17.7277 3.80911 17.9761 4.04068 18.1553C4.9941 18.9146 6.07536 19.5122 7.23801 19.9226C7.38669 19.972 7.54268 19.9981 7.70001 20C7.91573 19.9995 8.1282 19.9494 8.3196 19.8539C8.51099 19.7583 8.67573 19.6201 8.80001 19.4508C9.06138 19.0852 9.41174 18.7864 9.82069 18.5802C10.2296 18.3741 10.6848 18.2669 11.1467 18.268C11.5942 18.2685 12.0354 18.3694 12.4352 18.5625C12.8349 18.7556 13.1822 19.0357 13.4493 19.3804C13.627 19.6097 13.8787 19.7762 14.1652 19.8539C14.4517 19.9316 14.7569 19.9161 15.0333 19.8099C16.0964 19.3991 17.0862 18.8313 17.9667 18.1271C18.1879 17.9516 18.3453 17.7132 18.4165 17.4462C18.4877 17.1793 18.4688 16.8975 18.3627 16.6415C18.1902 16.2495 18.115 15.8243 18.143 15.3996C18.171 14.9748 18.3014 14.5622 18.524 14.1941C18.7466 13.8261 19.0553 13.5128 19.4256 13.2789C19.796 13.045 20.2179 12.897 20.658 12.8465C20.9434 12.8086 21.2088 12.6845 21.4158 12.4921C21.6228 12.2997 21.7607 12.049 21.8093 11.7763C21.9271 11.1891 21.9909 10.593 22 9.995C22.0001 9.36424 21.9388 8.73486 21.8167 8.1151C21.7672 7.84846 21.6314 7.60359 21.4286 7.41526C21.2259 7.22693 20.9665 7.10473 20.6873 7.06602ZM14.6667 9.995C14.6667 10.6913 14.4516 11.3719 14.0487 11.9508C13.6458 12.5298 13.0732 12.981 12.4032 13.2474C11.7332 13.5139 10.9959 13.5836 10.2847 13.4478C9.57341 13.3119 8.92008 12.9766 8.40728 12.4843C7.89449 11.992 7.54528 11.3647 7.4038 10.6818C7.26232 9.9989 7.33493 9.29107 7.61245 8.6478C7.88997 8.00452 8.35994 7.45471 8.96292 7.06788C9.5659 6.68106 10.2748 6.47459 11 6.47459C11.9725 6.47459 12.9051 6.84549 13.5927 7.50569C14.2804 8.1659 14.6667 9.06133 14.6667 9.995Z" fill="url(#paint0_linear_1_242)"/>
<defs>
<linearGradient id="paint0_linear_1_242" x1="-0.000460394" y1="19.9995" x2="20.0669" y2="-0.318362" gradientUnits="userSpaceOnUse">
<stop stop-color="#0146A6"/>
<stop offset="0.46875" stop-color="#0368BE"/>
<stop offset="1" stop-color="#06C6DD"/>
</linearGradient>
</defs>
</svg>
