<?xml version="1.0" encoding="utf-8"?>
<!-- Generator: Adobe Illustrator 27.6.1, SVG Export Plug-In . SVG Version: 6.00 Build 0)  -->
<svg version="1.1" id="Layer_1" xmlns="http://www.w3.org/2000/svg" xmlns:xlink="http://www.w3.org/1999/xlink" x="0px" y="0px"
	 viewBox="0 0 24 24" style="enable-background:new 0 0 24 24;" xml:space="preserve">
<style type="text/css">
	.st0{fill:url(#SVGID_1_);stroke:#000000;stroke-miterlimit:10;}
	.st1{display:none;fill:url(#SVGID_00000033365057376673776290000003402280703397511323_);}
	.st2{display:none;fill:url(#SVGID_00000150063707271276798020000007125674398717058968_);}
	.st3{fill:none;stroke:url(#SVGID_00000169549634381679455130000012272497930743927685_);}
	.st4{fill-rule:evenodd;clip-rule:evenodd;fill:url(#SVGID_00000100375562766242702670000002139435370335375761_);}
</style>
<linearGradient id="SVGID_1_" gradientUnits="userSpaceOnUse" x1="9.1266" y1="9.9263" x2="9.1266" y2="9.9263">
	<stop  offset="0" style="stop-color:#E2A034"/>
	<stop  offset="0.1078" style="stop-color:#E8AB49"/>
	<stop  offset="0.2773" style="stop-color:#EFBA67"/>
	<stop  offset="0.4505" style="stop-color:#F5C77C"/>
	<stop  offset="0.6267" style="stop-color:#FAD08B"/>
	<stop  offset="0.8075" style="stop-color:#FED695"/>
	<stop  offset="1" style="stop-color:#FFD898"/>
</linearGradient>
<path class="st0" d="M9.13,9.93"/>
<linearGradient id="SVGID_00000178196567509339184320000017360563766546210447_" gradientUnits="userSpaceOnUse" x1="9" y1="6.5" x2="9" y2="17.5">
	<stop  offset="0" style="stop-color:#E2A034"/>
	<stop  offset="0.1078" style="stop-color:#E8AB49"/>
	<stop  offset="0.2773" style="stop-color:#EFBA67"/>
	<stop  offset="0.4505" style="stop-color:#F5C77C"/>
	<stop  offset="0.6267" style="stop-color:#FAD08B"/>
	<stop  offset="0.8075" style="stop-color:#FED695"/>
	<stop  offset="1" style="stop-color:#FFD898"/>
</linearGradient>
<path style="display:none;fill:url(#SVGID_00000178196567509339184320000017360563766546210447_);" d="M8.5,6.5h1c0.55,0,1,0.45,1,1
	v9c0,0.55-0.45,1-1,1h-1c-0.55,0-1-0.45-1-1v-9C7.5,6.95,7.95,6.5,8.5,6.5z"/>
<linearGradient id="SVGID_00000099631178448411760170000003051035340386594690_" gradientUnits="userSpaceOnUse" x1="15" y1="6.5" x2="15" y2="17.5">
	<stop  offset="0" style="stop-color:#E2A034"/>
	<stop  offset="0.1078" style="stop-color:#E8AB49"/>
	<stop  offset="0.2773" style="stop-color:#EFBA67"/>
	<stop  offset="0.4505" style="stop-color:#F5C77C"/>
	<stop  offset="0.6267" style="stop-color:#FAD08B"/>
	<stop  offset="0.8075" style="stop-color:#FED695"/>
	<stop  offset="1" style="stop-color:#FFD898"/>
</linearGradient>
<path style="display:none;fill:url(#SVGID_00000099631178448411760170000003051035340386594690_);" d="M14.5,6.5h1
	c0.55,0,1,0.45,1,1v9c0,0.55-0.45,1-1,1h-1c-0.55,0-1-0.45-1-1v-9C13.5,6.95,13.95,6.5,14.5,6.5z"/>
<linearGradient id="SVGID_00000013172399861753912970000003817052298960945323_" gradientUnits="userSpaceOnUse" x1="407" y1="306" x2="431" y2="306" gradientTransform="matrix(6.123234e-17 1 1 -6.123234e-17 -294 -407)">
	<stop  offset="0" style="stop-color:#E2A034"/>
	<stop  offset="0.1078" style="stop-color:#E8AB49"/>
	<stop  offset="0.2773" style="stop-color:#EFBA67"/>
	<stop  offset="0.4505" style="stop-color:#F5C77C"/>
	<stop  offset="0.6267" style="stop-color:#FAD08B"/>
	<stop  offset="0.8075" style="stop-color:#FED695"/>
	<stop  offset="1" style="stop-color:#FFD898"/>
</linearGradient>
<path style="fill:none;stroke:url(#SVGID_00000013172399861753912970000003817052298960945323_);" d="M23.5,5v14
	c0,2.49-2.01,4.5-4.5,4.5H5c-2.49,0-4.5-2.01-4.5-4.5V5c0-2.49,2.01-4.5,4.5-4.5h14C21.49,0.5,23.5,2.51,23.5,5z"/>
<linearGradient id="SVGID_00000033327351197362143480000002076548895509470097_" gradientUnits="userSpaceOnUse" x1="11.9444" y1="6.4444" x2="11.9444" y2="17.5556">
	<stop  offset="0" style="stop-color:#E2A034"/>
	<stop  offset="0.1078" style="stop-color:#E8AB49"/>
	<stop  offset="0.2773" style="stop-color:#EFBA67"/>
	<stop  offset="0.4505" style="stop-color:#F5C77C"/>
	<stop  offset="0.6267" style="stop-color:#FAD08B"/>
	<stop  offset="0.8075" style="stop-color:#FED695"/>
	<stop  offset="1" style="stop-color:#FFD898"/>
</linearGradient>
<path style="fill-rule:evenodd;clip-rule:evenodd;fill:url(#SVGID_00000033327351197362143480000002076548895509470097_);" d="
	M6.39,8.67c0-1.23,0.99-2.22,2.22-2.22h6.67c1.23,0,2.22,0.99,2.22,2.22v6.67c0,1.23-0.99,2.22-2.22,2.22H8.61
	c-1.23,0-2.22-0.99-2.22-2.22V8.67z"/>
</svg>
