<svg width="13" height="18" viewBox="0 0 13 18" fill="none" xmlns="http://www.w3.org/2000/svg">
<path d="M10.6209 17.5616H2.27648C1.84052 17.5616 1.47951 17.2236 1.44992 16.7868L0.733839 6.1206C0.702276 5.64026 1.08103 5.23504 1.56039 5.23504H11.337C11.8164 5.23504 12.1951 5.64224 12.1636 6.1206L11.4475 16.7868C11.4179 17.2236 11.0569 17.5616 10.6209 17.5616ZM12.9803 3.67939H0.0197269C0.00789074 3.67939 0 3.67149 0 3.65963V1.38842C0 1.37656 0.00789074 1.36865 0.0197269 1.36865H12.9803C12.9921 1.36865 13 1.37656 13 1.38842V3.65765C13 3.66951 12.9921 3.67939 12.9803 3.67939Z" fill="#040414"/>
<path d="M9.78757 2.50877H2.98422C2.97259 2.50877 2.96484 2.5012 2.96484 2.48985V0.0189198C2.96484 0.00756794 2.97259 0 2.98422 0H9.78757C9.7992 0 9.80695 0.00756794 9.80695 0.0189198V2.48985C9.80695 2.49931 9.7992 2.50877 9.78757 2.50877Z" fill="#040414"/>
</svg>
