<svg width="133" height="35" viewBox="0 0 133 35" fill="none" xmlns="http://www.w3.org/2000/svg">
<rect x="0.5" y="0.5" width="132" height="34" rx="1.5" fill="url(#paint0_linear_1_66)" fill-opacity="0.15" stroke="url(#paint1_linear_1_66)"/>
<path d="M25.786 14.355H26.996L24.235 22H22.816L20.055 14.355H21.276L23.531 20.636L25.786 14.355ZM28.3449 15.202C27.8719 15.202 27.4979 14.872 27.4979 14.388C27.4979 13.904 27.8719 13.552 28.3449 13.552C28.8179 13.552 29.1919 13.904 29.1919 14.388C29.1919 14.872 28.8179 15.202 28.3449 15.202ZM27.7619 22V16.203H28.9279V22H27.7619ZM31.1317 19.492C31.3077 20.482 32.0667 21.098 33.0457 21.098C33.9147 21.098 34.3987 20.779 34.6627 20.174L35.6197 20.779C35.1797 21.549 34.3987 22.132 33.0127 22.132C31.1867 22.132 29.9767 20.834 29.9767 19.107C29.9767 17.424 31.2857 16.071 32.9247 16.071C34.7177 16.071 35.8287 17.479 35.8287 18.975C35.8287 19.173 35.8177 19.382 35.8067 19.492H31.1317ZM31.1427 18.601H34.6847C34.5307 17.622 33.8597 17.017 32.9687 17.017C32.0667 17.017 31.3187 17.6 31.1427 18.601ZM43.4293 16.203H44.6283L43.0773 22H41.7023L40.4153 17.479L39.1503 22H37.7753L36.2023 16.203H37.4013L38.5123 20.878L39.7663 16.203H41.0753L42.3293 20.834L43.4293 16.203ZM53.5581 14.355L50.7311 18.865V22H49.5651V18.865L46.7381 14.355H48.0471L50.1481 17.875L52.2491 14.355H53.5581ZM55.8412 22.132C54.0592 22.132 52.7942 20.834 52.7942 19.107C52.7942 17.369 54.0592 16.082 55.8412 16.082C57.6342 16.082 58.8992 17.369 58.8992 19.107C58.8992 20.834 57.6342 22.132 55.8412 22.132ZM55.8522 21.087C56.9632 21.087 57.7332 20.262 57.7332 19.107C57.7332 17.941 56.9742 17.116 55.8522 17.116C54.7302 17.116 53.9602 17.941 53.9602 19.107C53.9602 20.251 54.7302 21.087 55.8522 21.087ZM64.0142 16.203H65.1692V22H64.0802V21.263C63.6842 21.769 63.0242 22.132 62.2212 22.132C60.7362 22.132 59.9332 21.142 59.9332 19.789V16.203H61.0882V19.646C61.0882 20.515 61.6492 21.098 62.5402 21.087C63.4202 21.087 64.0032 20.46 64.0142 19.778V16.203ZM67.6949 16.94C68.0799 16.445 68.7179 16.071 69.4769 16.071V17.16C68.4429 17.171 67.7609 17.787 67.7609 18.601V22H66.5949V16.203H67.6949V16.94ZM74.1526 20.548H77.6506V22H72.5136V14.355H74.1526V20.548ZM79.1902 15.356C78.5962 15.356 78.1232 14.927 78.1232 14.322C78.1232 13.728 78.5962 13.288 79.1902 13.288C79.7842 13.288 80.2462 13.728 80.2462 14.322C80.2462 14.927 79.7842 15.356 79.1902 15.356ZM78.3652 22V16.203H79.9932V22H78.3652ZM83.9412 22.143C82.2032 22.143 80.8832 20.834 80.8832 19.118C80.8832 17.402 82.1812 16.071 83.9412 16.071C85.5142 16.071 86.4822 17.105 86.7352 17.974L85.2832 18.546C85.1182 17.941 84.6562 17.523 83.9742 17.523C83.1602 17.523 82.5222 18.139 82.5222 19.107C82.5222 20.075 83.1602 20.691 83.9742 20.691C84.6672 20.691 85.1512 20.273 85.3162 19.679L86.7682 20.262C86.5152 21.109 85.5472 22.143 83.9412 22.143ZM88.7941 19.602C88.9811 20.361 89.5751 20.79 90.3451 20.79C91.0601 20.79 91.4231 20.537 91.6761 20.075L92.9191 20.9C92.4681 21.56 91.7201 22.143 90.3011 22.143C88.4201 22.143 87.1991 20.834 87.1991 19.107C87.1991 17.424 88.5301 16.071 90.1911 16.071C92.0611 16.071 93.1721 17.534 93.1721 18.986C93.1721 19.239 93.1611 19.459 93.1391 19.602H88.7941ZM88.7721 18.535H91.6431C91.4891 17.776 90.9831 17.303 90.2351 17.303C89.4871 17.303 88.9371 17.743 88.7721 18.535ZM97.3163 16.06C98.7023 16.06 99.5823 16.995 99.5823 18.348V22H97.9653V18.667C97.9653 17.93 97.4813 17.512 96.8213 17.512C96.1723 17.512 95.6663 17.974 95.6553 18.568V22H94.0273V16.203H95.5673V16.742C95.9633 16.335 96.5683 16.06 97.3163 16.06ZM102.843 22.143C101.556 22.143 100.632 21.615 100.302 20.614L101.677 20.086C101.831 20.592 102.249 20.889 102.898 20.889C103.382 20.889 103.668 20.691 103.668 20.361C103.668 19.349 100.577 19.833 100.577 17.842C100.577 16.742 101.479 16.071 102.887 16.071C104.042 16.071 104.878 16.544 105.12 17.347L103.745 17.875C103.602 17.479 103.294 17.281 102.865 17.281C102.425 17.281 102.183 17.457 102.183 17.754C102.183 18.689 105.285 18.128 105.285 20.262C105.285 21.428 104.328 22.143 102.843 22.143ZM107.443 19.602C107.63 20.361 108.224 20.79 108.994 20.79C109.709 20.79 110.072 20.537 110.325 20.075L111.568 20.9C111.117 21.56 110.369 22.143 108.95 22.143C107.069 22.143 105.848 20.834 105.848 19.107C105.848 17.424 107.179 16.071 108.84 16.071C110.71 16.071 111.821 17.534 111.821 18.986C111.821 19.239 111.81 19.459 111.788 19.602H107.443ZM107.421 18.535H110.292C110.138 17.776 109.632 17.303 108.884 17.303C108.136 17.303 107.586 17.743 107.421 18.535Z" fill="white"/>
<defs>
<linearGradient id="paint0_linear_1_66" x1="1.74705e-07" y1="19.9991" x2="133" y2="19.9991" gradientUnits="userSpaceOnUse">
<stop stop-color="#0146A6"/>
<stop offset="0.46875" stop-color="#0368BE"/>
<stop offset="1" stop-color="#06C6DD"/>
</linearGradient>
<linearGradient id="paint1_linear_1_66" x1="1.74705e-07" y1="19.9991" x2="133" y2="19.9991" gradientUnits="userSpaceOnUse">
<stop stop-color="#0146A6"/>
<stop offset="0.46875" stop-color="#0368BE"/>
<stop offset="1" stop-color="#06C6DD"/>
</linearGradient>
</defs>
</svg>
