<svg width="68" height="69" viewBox="0 0 68 69" fill="none" xmlns="http://www.w3.org/2000/svg">
<path d="M52.6792 19.8494C52.6792 18.9753 53.3871 18.2669 54.2605 18.2669C55.1339 18.2669 55.8418 18.9753 55.8418 19.8494C55.8418 20.7234 55.1339 21.4319 54.2605 21.4319C53.3871 21.4319 52.6792 20.7234 52.6792 19.8494ZM63.5683 32.6908C72.4694 33.1428 62.8903 24.1448 62.8903 24.1448C63.2517 5.06321 35.1029 7.09821 35.1029 7.09821C34.0629 5.66418 31.7106 2.86037 27.6808 1.2203C26.8063 0.864143 21.8897 -1.04956 16.3566 0.781059C13.4873 1.73043 10.1156 3.79756 10.4017 5.18783C10.7421 6.8412 16.0422 6.49336 16.3848 8.3273C16.5863 9.40573 14.9358 10.5251 14.6353 10.7611C-11.7518 31.4701 5.59861 63.3931 5.59861 63.3931C5.59861 63.3931 0.176734 28.8474 29.9976 30.385C27.3332 37.0284 27.626 38.9055 28.3571 39.4145C30.3961 40.8331 35.518 31.3842 45.5553 29.83C45.5553 29.83 47.9962 29.4522 63.5683 32.6908Z" fill="url(#paint0_linear_1_12)"/>
<mask id="mask0_1_12" style="mask-type:alpha" maskUnits="userSpaceOnUse" x="0" y="0" width="68" height="64">
<path d="M52.6792 19.8494C52.6792 18.9753 53.3871 18.2669 54.2605 18.2669C55.1339 18.2669 55.8418 18.9753 55.8418 19.8494C55.8418 20.7234 55.1339 21.4319 54.2605 21.4319C53.3871 21.4319 52.6792 20.7234 52.6792 19.8494ZM63.5683 32.6908C72.4694 33.1428 62.8903 24.1448 62.8903 24.1448C63.2517 5.06321 35.1029 7.09821 35.1029 7.09821C34.0629 5.66418 31.7106 2.86037 27.6808 1.2203C26.8063 0.864143 21.8897 -1.04956 16.3566 0.781059C13.4873 1.73043 10.1156 3.79756 10.4017 5.18783C10.7421 6.8412 16.0422 6.49336 16.3848 8.3273C16.5863 9.40573 14.9358 10.5251 14.6353 10.7611C-11.7518 31.4701 5.59861 63.3931 5.59861 63.3931C5.59861 63.3931 0.176734 28.8474 29.9976 30.385C27.3332 37.0284 27.626 38.9055 28.3571 39.4145C30.3961 40.8331 35.518 31.3842 45.5553 29.83C45.5553 29.83 47.9962 29.4522 63.5683 32.6908Z" fill="black"/>
</mask>
<g mask="url(#mask0_1_12)">
<path fill-rule="evenodd" clip-rule="evenodd" d="M52.6791 19.8416C52.6791 18.9676 53.387 18.2592 54.2604 18.2592C55.1338 18.2592 55.8417 18.9676 55.8417 19.8416C55.8417 20.7157 55.1338 21.4241 54.2604 21.4241C53.387 21.4241 52.6791 20.7157 52.6791 19.8416ZM16.3134 8.98255C16.3134 8.98255 32.5087 5.43708 36.3947 17.7363C40.2801 30.0355 46.9672 22.8005 54.0158 23.3428C61.0643 23.8856 66.5526 32.24 66.5526 32.24C69.6233 30.4625 62.8897 24.1371 62.8897 24.1371C63.2511 5.05545 35.1023 7.09045 35.1023 7.09045C26.3823 -4.84705 14.0928 1.30282 14.0928 1.30282C11.3957 2.317 9.67716 3.82138 9.8432 4.94135C9.99375 5.95442 10.752 6.35654 10.752 6.35654C11.0636 6.5216 11.373 6.53933 11.5695 6.53213C14.778 7.723 16.3814 8.31843 16.3848 8.31954C16.4445 8.58984 16.3726 8.83522 16.3139 8.9831L16.3134 8.98255Z" fill="url(#paint1_linear_1_12)"/>
</g>
<path fill-rule="evenodd" clip-rule="evenodd" d="M6.0322 36.5547C-0.473942 41.167 8.23671 16.9419 8.23671 16.9419C-8.60565 37.2582 5.59883 63.393 5.59883 63.393C5.59883 63.393 1.81358 39.2743 17.9652 32.2393C13.4599 33.2103 8.77413 34.6111 6.03275 36.5542" fill="url(#paint2_linear_1_12)"/>
<path fill-rule="evenodd" clip-rule="evenodd" d="M7.35213 44.0395C6.96746 48.0713 8.0949 50.2093 8.96773 51.3198C9.65681 52.1966 10.5706 52.9206 12.1098 54.1397C14.7577 56.2379 16.3467 56.974 16.1729 57.5533C15.9676 58.238 13.6878 57.4055 11.7678 58.9165C10.8175 59.6642 10.3653 60.6635 10.2252 60.9814C9.87986 61.7663 9.7415 62.5688 9.74537 63.6938C9.75644 66.9501 10.9431 68.5747 10.5335 68.865C9.93245 69.2914 6.39461 66.4876 4.42201 62.2974C3.28018 59.8714 2.96027 57.6115 2.87393 56.0789C4.36666 52.0659 5.8594 48.053 7.35213 44.04V44.0395Z" fill="url(#paint3_linear_1_12)"/>
<defs>
<linearGradient id="paint0_linear_1_12" x1="67.356" y1="31.7112" x2="8.1938" y2="67.8555" gradientUnits="userSpaceOnUse">
<stop stop-color="#0696E0"/>
<stop offset="1" stop-color="#003399"/>
</linearGradient>
<linearGradient id="paint1_linear_1_12" x1="67.3559" y1="32.2089" x2="9.87346" y2="4.40085" gradientUnits="userSpaceOnUse">
<stop stop-color="#06D2DF"/>
<stop offset="1" stop-color="#0367BE" stop-opacity="0"/>
</linearGradient>
<linearGradient id="paint2_linear_1_12" x1="4.89683" y1="38.2433" x2="8.98275" y2="68.9077" gradientUnits="userSpaceOnUse">
<stop stop-color="#0146A6"/>
<stop offset="0.625036" stop-color="#0694DF"/>
<stop offset="1" stop-color="#06C6DD"/>
</linearGradient>
<linearGradient id="paint3_linear_1_12" x1="4.89683" y1="38.2433" x2="8.98275" y2="68.9077" gradientUnits="userSpaceOnUse">
<stop stop-color="#0146A6"/>
<stop offset="0.625036" stop-color="#0694DF"/>
<stop offset="1" stop-color="#06C6DD"/>
</linearGradient>
</defs>
</svg>
